<svg id="Capa_1" enable-background="new 0 0 511.881 511.881" height="512" viewBox="0 0 511.881 511.881" width="512" xmlns="http://www.w3.org/2000/svg"><g><g><g><path d="m472.406 504.381h-432.931c-11.495 0-20.814-9.319-20.814-20.814v-455.253c-.001-11.495 9.318-20.814 20.814-20.814h432.932c11.495 0 20.814 9.319 20.814 20.814v455.253c-.001 11.495-9.319 20.814-20.815 20.814z" fill="#26a6fe"/></g><g><path d="m493.225 28.318v455.244c0 11.497-9.322 20.82-20.82 20.82h-26.343c11.497 0 20.809-9.322 20.809-20.82v-455.244c0-11.497-9.312-20.82-20.809-20.82h26.343c11.498.001 20.82 9.323 20.82 20.82z" fill="#0593fc"/></g><g><path d="m428.969 458.9h-346.057c-11.495 0-20.814-9.319-20.814-20.814v-364.291c0-11.495 9.319-20.814 20.814-20.814h346.057c11.495 0 20.814 9.319 20.814 20.814v364.291c0 11.495-9.319 20.814-20.814 20.814z" fill="#0563c1"/></g><path d="m449.93 73.66v364.56c0 11.51-9.33 20.83-20.83 20.83h-26.37c11.5 0 20.83-9.32 20.83-20.83v-364.56c0-11.51-9.33-20.83-20.83-20.83h26.37c11.5.001 20.83 9.32 20.83 20.83z" fill="#055fa8"/></g><g><g><g><g><g><path d="m341.977 373.827c-15.784 1.096-32.319-3.367-45.99-10.674-2.912-1.556-5.706-3.345-8.212-5.503-4.963-4.273-8.719-10.007-8.782-16.74-.053-5.609 2.332-11.063 6.489-14.83 7.884-7.146 19.608-5.908 27.666.307 7.528 5.806 15.475 8.675 24.971 7.947 5.758-.442 16.288-1.972 17.559-9.09.452-2.534-4.127-6.184-10.889-8.679-3.646-1.345-7.295-2.682-10.916-4.091-13.945-5.424-28.764-11.854-39.154-22.998-10.189-10.928-12.298-28.325-7.127-42.149 3.485-9.317 10.983-16.461 19.388-21.46 17.597-10.465 39.953-12.853 59.609-7.819 13.442 3.442 32.15 13.93 31.184 30.009-.595 9.901-8.158 18.604-18.533 17.975-5.549-.337-10.819-2.887-15.767-5.216-8.552-4.025-19.165-5.399-27.791-.297-1.815 1.073-6.189 3.37-6.534 5.762-.103.718.041 1.186.252 1.502 4.695 2.041 16.482 7.072 29.063 11.713 12.907 4.761 22.69 11.847 29.078 21.06 6.504 9.382 9.001 20.616 7.034 31.633-2.331 13.055-10.497 24.365-21.565 31.503-9.158 5.905-20.174 9.382-31.033 10.135z" fill="#26a6fe"/></g></g></g></g><g><g><g><g><path d="m329.147 266.285c-.1.712.04 1.183.251 1.494 4.691 2.045 16.479 7.077 29.059 11.718 12.911 4.761 22.694 11.848 29.079 21.06 6.505 9.382 9.001 20.619 7.037 31.635-2.336 13.051-10.495 24.368-21.561 31.505-9.162 5.904-20.178 9.372-31.034 10.134-1.283.09-2.556.14-3.839.15 5.683-1.754 11.147-4.25 16.078-7.438 11.387-7.337 19.777-18.965 22.173-32.387 2.115-11.838-.712-22.203-10.515-29.881-4.781-3.739-10.375-6.275-15.898-8.771-7.728-3.488-15.447-6.977-23.175-10.465-7.117-3.218-15.557-8.36-17.261-16.81-2.185-10.876 5.824-18.474 15.256-21.872 12.57-4.521 25.28-4.761 38.191-1.754 4.982 1.153 9.884 2.716 14.966 3.268 8.28.902 15.407-.962 19.005-6.676.662 2.165.952 4.451.812 6.866-.591 9.894-8.159 18.604-18.534 17.973-5.543-.341-10.816-2.887-15.768-5.212-8.55-4.03-19.166-5.403-27.786-.301-1.815 1.073-6.195 3.368-6.536 5.764z" fill="#0593fc"/></g></g></g></g><g><g><path d="m241.702 159.668c-14.422-14.042-33.375-21.775-53.37-21.775 0 0-54.068 0-54.205 0-5.449 0-10.366 2.062-14.199 5.895-3.864 3.878-5.849 8.67-5.849 14.153v194.675c0 11.072 8.975 20.048 20.048 20.048s20.048-8.975 20.048-20.048v-64.623c11.929-.063 26.341-.13 34.158-.13 19.995 0 38.949-7.733 53.37-21.775 14.633-14.247 22.691-33.144 22.691-53.211-.001-20.065-8.059-38.963-22.692-53.209zm-53.37 88.1c-7.785 0-22.005.066-33.893.128-.063-12.256-.13-27.062-.13-35.018 0-6.722-.039-22.099-.075-34.89h34.098c19.495 0 35.966 15.977 35.966 34.89s-16.471 34.89-35.966 34.89z" fill="#26a6fe"/></g></g><g><path d="m241.707 159.671c-14.424-14.044-33.379-21.782-53.377-21.782h-18.043c19.998 0 38.953 7.738 53.377 21.782 25.601 24.929 25.531 66.398 0 91.267-14.424 14.033-33.379 18.708-53.377 18.708-6.505 0-17.572.05-27.977.1-3.418.01-6.175 2.797-6.175 6.215v76.659c0 7.829-4.491 14.605-11.036 17.893 2.716 1.383 5.784 2.155 9.032 2.155 11.066 0 20.048-8.981 20.048-20.048v-64.624c11.928-.07 26.333-.13 34.151-.13 19.998 0 38.953-7.738 53.377-21.782 14.625-14.244 22.684-33.139 22.684-53.207s-8.06-38.963-22.684-53.206z" fill="#0593fc"/></g><g><path d="m472.406 0h-432.932c-15.612 0-28.313 12.702-28.313 28.314v455.253c0 15.612 12.701 28.314 28.313 28.314h243.533c4.143 0 7.5-3.358 7.5-7.5s-3.357-7.5-7.5-7.5h-243.533c-7.341 0-13.313-5.973-13.313-13.314v-455.253c0-7.341 5.972-13.314 13.313-13.314h432.932c7.342 0 13.314 5.973 13.314 13.314v455.253c0 7.341-5.973 13.314-13.314 13.314h-154.399c-4.143 0-7.5 3.358-7.5 7.5s3.357 7.5 7.5 7.5h154.398c15.612 0 28.314-12.702 28.314-28.314v-455.253c.001-15.612-12.701-28.314-28.313-28.314z"/><path d="m457.283 438.086v-364.291c0-15.613-12.702-28.314-28.314-28.314h-346.056c-15.612 0-28.314 12.702-28.314 28.314v364.291c0 15.613 12.702 28.314 28.314 28.314h346.056c15.612 0 28.314-12.701 28.314-28.314zm-387.685 0v-364.291c0-7.342 5.973-13.314 13.314-13.314h346.056c7.342 0 13.314 5.973 13.314 13.314v364.291c0 7.342-5.973 13.314-13.314 13.314h-346.055c-7.342 0-13.315-5.972-13.315-13.314z"/><path d="m246.934 154.294c-15.83-15.413-36.642-23.901-58.603-23.901h-54.205c-7.465 0-14.209 2.798-19.512 8.101-5.258 5.276-8.036 12-8.036 19.447v79.796c0 4.142 3.357 7.5 7.5 7.5s7.5-3.358 7.5-7.5v-79.797c0-3.489 1.197-6.387 3.652-8.85 2.454-2.454 5.446-3.698 8.896-3.698h54.205c18.029 0 35.125 6.978 48.138 19.648 13.171 12.823 20.424 29.812 20.424 47.837s-7.253 35.014-20.424 47.837c-13.013 12.67-30.108 19.648-48.138 19.648-7.998 0-23.012.071-34.197.13-4.126.022-7.46 3.374-7.46 7.5v64.623c0 6.919-5.629 12.548-12.548 12.548s-12.548-5.629-12.548-12.548v-79.795c0-4.142-3.357-7.5-7.5-7.5s-7.5 3.358-7.5 7.5v79.796c0 15.19 12.358 27.548 27.548 27.548s27.548-12.358 27.548-27.548v-57.161c9.706-.048 20.368-.092 26.657-.092 21.961 0 42.773-8.488 58.603-23.901 16.095-15.671 24.959-36.477 24.959-58.584s-8.864-42.913-24.959-58.584z"/><path d="m149.164 253.227c1.404 1.39 3.3 2.169 5.275 2.169h.04c11.048-.059 25.89-.128 33.853-.128 23.561 0 43.466-19.412 43.466-42.39s-19.905-42.39-43.466-42.39h-34.098c-1.993 0-3.903.793-5.311 2.204s-2.195 3.324-2.189 5.317c.036 12.783.075 28.15.075 34.869 0 6.438.043 17.905.13 35.056.01 1.99.811 3.894 2.225 5.293zm39.168-67.739c15.43 0 28.466 12.543 28.466 27.39s-13.036 27.39-28.466 27.39c-6.289 0-16.831.043-26.43.09-.063-13.025-.093-22.054-.093-27.48 0-5.444-.025-16.563-.055-27.39z"/><path d="m392.309 222.492c-6.403-5.197-15.1-9.465-23.861-11.708-22.222-5.691-46.636-2.461-65.304 8.639-11.041 6.566-18.849 15.308-22.578 25.278-6.482 17.329-3 37.378 8.665 49.891 11.563 12.402 27.702 19.342 41.922 24.874 3.332 1.296 6.713 2.542 9.981 3.748l1.058.39c1.494.551 2.742 1.13 3.743 1.668-1.604.612-4.217 1.266-8.391 1.586-7.236.559-13.352-1.42-19.817-6.408-11.647-8.982-27.326-8.949-37.282.075-5.763 5.222-9.025 12.678-8.952 20.458.077 8.158 4.122 16.096 11.389 22.353 2.718 2.34 5.848 4.444 9.57 6.433 14.292 7.639 29.963 11.726 44.699 11.726 1.797 0 3.581-.061 5.346-.184 12.309-.854 24.588-4.873 34.576-11.314 13.192-8.508 22.262-21.807 24.883-36.488 2.318-12.983-.613-26.203-8.253-37.224-7.283-10.504-18.267-18.52-32.646-23.824-6.478-2.389-12.767-4.895-17.939-7.022 4.973-1.414 11.116-.68 17.161 2.166l.434.204c5.272 2.483 11.248 5.298 18.073 5.712 7.073.428 13.736-2.156 18.749-7.28 4.575-4.677 7.318-10.974 7.724-17.73.58-9.675-3.897-18.672-12.95-26.019zm-2.024 25.117c-.187 3.108-1.453 6.076-3.474 8.142-1.36 1.39-3.695 3.001-7.118 2.796-3.949-.239-8.342-2.309-12.59-4.309l-.438-.207c-12.295-5.787-24.98-5.775-34.801.033l-.518.301c-3.289 1.9-8.792 5.08-9.623 10.847-.448 3.11.53 5.375 1.431 6.728.8 1.202 1.93 2.147 3.253 2.723 4.592 1.996 16.654 7.148 29.458 11.871 11.435 4.217 20.017 10.373 25.51 18.297 5.366 7.74 7.431 16.988 5.815 26.042-1.892 10.595-8.542 20.26-18.246 26.518-7.898 5.093-17.659 8.274-27.486 8.957-13.268.92-28.552-2.654-41.936-9.807-2.739-1.464-4.98-2.959-6.854-4.571-2.793-2.404-6.131-6.286-6.176-11.126-.033-3.449 1.472-6.889 4.024-9.202 2.271-2.058 5.048-2.927 7.878-2.927 3.625 0 7.336 1.428 10.171 3.615 9.36 7.22 19.21 10.326 30.126 9.486 18.14-1.392 23.264-9.062 24.369-15.251 1.196-6.707-4.518-12.915-15.678-17.032l-1.061-.391c-3.207-1.182-6.523-2.405-9.732-3.653-12.674-4.93-26.982-11.035-36.388-21.123-7.756-8.319-10.054-22.468-5.588-34.407 3.185-8.513 10.566-14.292 16.196-17.642 15.313-9.107 35.467-11.725 53.916-7 10.243 2.621 26.239 10.993 25.56 22.292z"/></g></g></g></svg>