<svg id="Capa_1" enable-background="new 0 0 512 512" height="512" viewBox="0 0 512 512" width="512" xmlns="http://www.w3.org/2000/svg"><g><g><g><path d="m472.521 504.504h-433.042c-11.498 0-20.82-9.321-20.82-20.82v-455.368c0-11.498 9.321-20.82 20.82-20.82h433.042c11.498 0 20.82 9.321 20.82 20.82v455.369c0 11.498-9.321 20.819-20.82 20.819z" fill="#fe9738"/></g><g><path d="m493.346 28.32v455.36c0 11.5-9.325 20.825-20.825 20.825h-26.349c11.5 0 20.815-9.325 20.815-20.825v-455.36c0-11.5-9.315-20.825-20.815-20.825h26.349c11.5 0 20.825 9.325 20.825 20.825z" fill="#fe860a"/></g><g><path d="m429.073 459.012h-346.145c-11.498 0-20.82-9.321-20.82-20.82v-364.384c0-11.498 9.321-20.82 20.82-20.82h346.145c11.498 0 20.82 9.321 20.82 20.82v364.384c-.001 11.498-9.322 20.82-20.82 20.82z" fill="#96450f"/></g><path d="m449.99 73.72v364.56c0 11.51-9.33 20.83-20.83 20.83h-26.37c11.5 0 20.83-9.32 20.83-20.83v-364.56c0-11.51-9.33-20.83-20.83-20.83h26.37c11.5 0 20.83 9.32 20.83 20.83z" fill="#7f3808"/></g><g><path d="m242.299 154.289c-.07-.184-.141-.367-.216-.548-3.789-9.211-12.668-15.159-22.626-15.159-.008 0-.017 0-.025 0-9.968.01-18.848 5.978-22.621 15.205-.061.151-.121.302-.179.454l-73.119 191.982c-3.942 10.35 1.253 21.935 11.602 25.877 10.351 3.941 21.936-1.253 25.877-11.602l13.292-34.899h89.798l13.149 34.841c3.03 8.03 10.661 12.979 18.765 12.978 2.352 0 4.746-.417 7.077-1.297 10.362-3.91 15.591-15.48 11.681-25.842zm-52.741 131.204 29.83-78.323 29.558 78.323z" fill="#fe860a"/></g><g><path d="m369.754 214.992c-11.075 0-20.053 8.978-20.053 20.053v118.315c0 11.075 8.978 20.053 20.053 20.053s20.053-8.978 20.053-20.053v-118.315c0-11.075-8.978-20.053-20.053-20.053z" fill="#fe860a"/></g><g><circle cx="369.754" cy="168.283" fill="#fe860a" r="18.556"/></g><g><path d="m314.755 346.278-72.461-191.986c-.06-.19-.14-.371-.211-.551-3.79-9.214-12.673-15.16-22.63-15.16-.01 0-.01 0-.02 0-3.309.01-6.507.662-9.435 1.885 5.855 2.446 10.638 7.139 13.165 13.275.08.18.15.361.221.551l72.451 191.986c3.599 9.535-.531 20.093-9.295 24.765 2.888 1.544 6.126 2.376 9.455 2.376 2.356 0 4.742-.421 7.079-1.293 10.358-3.91 15.591-15.481 11.681-25.848z" fill="#fe7701"/></g><g><path d="m389.803 235.045v118.312c0 11.079-8.974 20.053-20.053 20.053-3.419 0-6.637-.852-9.455-2.376 6.307-3.369 10.598-10.016 10.598-17.676v-118.313c0-7.66-4.291-14.308-10.598-17.677 2.817-1.524 6.036-2.376 9.455-2.376 11.079 0 20.053 8.974 20.053 20.053z" fill="#fe7701"/></g><g><path d="m388.309 168.279c0 10.257-8.302 18.559-18.559 18.559-3.459 0-6.688-.942-9.455-2.587 5.454-3.228 9.104-9.174 9.104-15.972s-3.65-12.734-9.104-15.962c2.767-1.644 5.996-2.587 9.455-2.587 10.257 0 18.559 8.302 18.559 18.549z" fill="#fe7701"/></g><g><path d="m472.521 0h-433.042c-15.613 0-28.316 12.703-28.316 28.316v455.368c0 15.613 12.703 28.316 28.316 28.316h433.042c15.613 0 28.315-12.703 28.315-28.316v-455.368c.001-15.613-12.701-28.316-28.315-28.316zm13.323 483.684c0 7.346-5.977 13.323-13.323 13.323h-433.042c-7.346 0-13.323-5.977-13.323-13.323v-455.368c0-7.346 5.977-13.323 13.323-13.323h433.042c7.346 0 13.323 5.977 13.323 13.323z"/><path d="m429.072 45.492h-346.144c-15.613 0-28.316 12.702-28.316 28.315v48.841c0 4.14 3.356 7.496 7.496 7.496s7.496-3.356 7.496-7.496v-48.84c0-7.346 5.977-13.323 13.323-13.323h346.144c7.346 0 13.323 5.977 13.323 13.323v364.384c0 7.346-5.977 13.323-13.323 13.323h-346.143c-7.346 0-13.323-5.977-13.323-13.323v-280.451c0-4.14-3.356-7.496-7.496-7.496s-7.496 3.356-7.496 7.496v280.451c0 15.613 12.703 28.315 28.316 28.315h346.144c15.613 0 28.316-12.702 28.316-28.315v-364.384c-.001-15.613-12.703-28.316-28.317-28.316z"/><path d="m189.558 292.989h59.388c2.461 0 4.766-1.208 6.166-3.233s1.716-4.608.848-6.91l-29.558-78.323c-1.1-2.915-3.887-4.845-7.002-4.85-.004 0-.007 0-.011 0-3.11 0-5.898 1.921-7.005 4.828l-29.83 78.323c-.877 2.304-.566 4.892.833 6.922 1.398 2.031 3.705 3.243 6.171 3.243zm29.798-64.673 18.749 49.681h-37.671z"/><path d="m167.997 363.165 11.453-30.07h79.449l11.319 29.992c4.024 10.664 14.383 17.828 25.778 17.828 3.325 0 6.596-.599 9.724-1.779 14.212-5.364 21.411-21.289 16.048-35.502l-72.454-191.99c-.001-.004-.003-.008-.004-.012-.097-.254-.196-.506-.293-.741-4.948-12.03-16.55-19.804-29.591-19.804-13.022.013-24.622 7.81-29.563 19.889l-.235.597-73.119 191.982c-5.407 14.196 1.744 30.144 15.94 35.551 14.194 5.404 30.142-1.747 35.548-15.941zm-37.479-14.274 73.107-191.952.124-.314c2.617-6.399 8.776-10.539 15.708-10.546 6.906 0 13.066 4.127 15.7 10.53.046.112.091.225.134.339l72.45 191.979c2.445 6.478-.837 13.737-7.315 16.182-1.43.54-2.92.814-4.43.814-5.194 0-9.916-3.266-11.75-8.128l-13.149-34.841c-1.102-2.918-3.895-4.85-7.014-4.85h-89.798c-3.111 0-5.898 1.921-7.005 4.828l-13.292 34.899c-2.464 6.469-9.736 9.729-16.204 7.265-6.472-2.466-9.731-9.735-7.266-16.205z"/><path d="m342.205 353.36c0 15.191 12.359 27.549 27.549 27.549 15.191 0 27.549-12.358 27.549-27.549v-30.308c0-4.14-3.356-7.496-7.496-7.496s-7.496 3.356-7.496 7.496v30.308c0 6.923-5.633 12.556-12.557 12.556s-12.557-5.633-12.557-12.556v-118.315c0-6.924 5.633-12.557 12.557-12.557s12.557 5.633 12.557 12.557v53.291c0 4.14 3.356 7.496 7.496 7.496s7.496-3.356 7.496-7.496v-53.291c0-15.191-12.359-27.549-27.549-27.549-15.191 0-27.549 12.359-27.549 27.549z"/><path d="m369.754 194.336c14.365 0 26.052-11.688 26.052-26.053s-11.687-26.052-26.052-26.052c-14.366 0-26.053 11.687-26.053 26.052s11.687 26.053 26.053 26.053zm0-37.113c6.099 0 11.06 4.961 11.06 11.06s-4.961 11.06-11.06 11.06-11.06-4.962-11.06-11.06 4.961-11.06 11.06-11.06z"/></g></g></svg>