<svg id="Capa_1" enable-background="new 0 0 512 512" height="512" viewBox="0 0 512 512" width="512" xmlns="http://www.w3.org/2000/svg"><g><g><path d="m409.305 444.953 4.995-15.736v-401.742c0-11.036-8.946-19.982-19.982-19.982h-284.065c-11.036 0-19.982 8.946-19.982 19.982v401.743l4.995 15.736h314.039z" fill="#61a2f9"/></g><g><path d="m394.319 7.493h-15.938v437.46h30.925l4.995-15.736v-401.742c0-11.036-8.946-19.982-19.982-19.982z" fill="#4a81f6"/></g><g><path d="m90.271 429.217v55.308c0 11.036 8.946 19.982 19.982 19.982h284.066c11.036 0 19.982-8.946 19.982-19.982v-55.308z" fill="#dae7ef"/></g><g><path d="m378.381 429.217v19.387c0 11.036-8.946 19.982-19.982 19.982h-268.128v15.938c0 11.036 8.946 19.982 19.982 19.982h284.066c11.036 0 19.982-8.946 19.982-19.982v-55.308h-35.92z" fill="#c1d5e4"/></g><g><path d="m215.547 275.851h-147.496c-11.046 0-20-8.954-20-20v-187.46c0-11.046 8.954-20 20-20h147.496c11.046 0 20 8.954 20 20v187.459c0 11.047-8.954 20.001-20 20.001z" fill="#dd5790"/></g><g><path d="m443.948 363.114h-147.496c-11.046 0-20-8.954-20-20v-187.46c0-11.046 8.954-20 20-20h147.496c11.046 0 20 8.954 20 20v187.459c0 11.046-8.954 20.001-20 20.001z" fill="#f6e266"/></g><g><path d="m215.565 48.391h-6.14v181.356c0 11.036-8.946 19.982-19.982 19.982h-141.392v6.14c0 11.036 8.946 19.982 19.982 19.982h95.786c2.65 0 5.191 1.053 7.065 2.926l32.042 32.043c1.859 1.859 5.037.542 5.037-2.086v-28.886c0-2.207 1.789-3.996 3.996-3.996h3.606c11.036 0 19.982-8.946 19.982-19.982v-187.497c0-11.036-8.946-19.982-19.982-19.982z" fill="#da387d"/></g><g><path d="m443.966 135.654h-6.14v181.356c0 11.036-8.946 19.982-19.982 19.982h-141.392v6.14c0 11.036 8.946 19.982 19.982 19.982h3.606c2.207 0 3.996 1.789 3.996 3.996v29.542c0 2.628 3.178 3.945 5.037 2.086l32.699-32.699c1.874-1.874 4.415-2.926 7.065-2.926h95.13c11.036 0 19.982-8.946 19.982-19.982v-187.495c-.001-11.036-8.947-19.982-19.983-19.982z" fill="#ecc32e"/></g><g><path d="m202.494 154.706h-5.65v-24.606l-2-9.104c0-6.186-3.015-11.201-9.201-11.201h-86.882c-6.186 0-9.201 5.015-9.201 11.201l-2 9.104v24.606h-5.65c-4.971 0-9 4.029-9 9v5.706c0 9.515 6.956 17.384 16.055 18.856 2.408 10.601 7.864 20.369 15.85 28.008l12.704 12.151c13.806 13.206 35.56 13.206 49.366 0l12.704-12.151c7.986-7.639 13.442-17.407 15.85-28.008 9.099-1.472 16.055-9.341 16.055-18.856v-5.706c0-4.971-4.03-9-9-9z" fill="#ffcbbe"/></g><g><g><path d="m142.201 115.689c20.211 0 38.995 5.369 54.642 14.564v-33.109c0-6.186-5.015-11.201-11.201-11.201h-86.881c-6.186 0-11.201 5.015-11.201 11.201v33.108c15.646-9.195 34.431-14.563 54.641-14.563z" fill="#aa593d"/></g></g><g><path d="m369.275 210.809c20.211 0 36.995 5.369 52.642 14.564l2-3.524v-9.34c0-22.89-18.556-41.445-41.445-41.445h-26.393c-22.89 0-41.445 18.556-41.445 41.445v9.34l2 3.524c15.646-9.195 32.43-14.564 52.641-14.564z" fill="#2b4d66"/></g><path d="m429.567 241.826h-4.65c-.552 0-1-.448-1-1v-18.978c0-11.046-8.954-20-20-20h-69.284c-11.046 0-20 8.954-20 20v18.978c0 .552-.448 1-1 1h-4.65c-4.971 0-9 4.029-9 9v5.706c0 9.113 6.38 16.716 14.913 18.636.719.162 1.259.746 1.439 1.461 2.543 10.122 7.88 19.427 15.554 26.767l12.704 12.151c13.806 13.206 35.56 13.206 49.366 0l12.704-12.152c7.674-7.34 13.011-16.646 15.554-26.767.18-.715.719-1.299 1.439-1.461 8.533-1.919 14.913-9.523 14.913-18.636v-5.706c-.002-4.969-4.031-8.999-9.002-8.999z" fill="#eaac9d"/><g><path d="m443.967 128.161h-22.172v-100.686c-.001-15.15-12.326-27.475-27.476-27.475h-49.856c-4.139 0-7.493 3.355-7.493 7.493s3.354 7.493 7.493 7.493h49.856c6.886 0 12.489 5.602 12.489 12.489v100.686h-110.374c-15.149 0-27.475 12.325-27.475 27.475v187.496c0 15.15 12.326 27.475 27.475 27.475h.11v26.046c-.3 9.02 11.628 13.996 17.828 7.384l32.699-32.699c.471-.471 1.099-.731 1.764-.731h95.131c15.149 0 27.475-12.325 27.475-27.475v-187.496c.001-15.15-12.325-27.475-27.474-27.475zm12.488 214.971c0 6.886-5.602 12.489-12.489 12.489h-95.132c-4.67.001-9.059 1.82-12.361 5.121l-24.943 24.944v-18.576c0-6.334-5.154-11.488-11.49-11.49h-3.607c-6.886 0-12.489-5.602-12.489-12.489v-187.495c0-6.886 5.602-12.489 12.489-12.489h147.533c6.886 0 12.489 5.602 12.489 12.489z"/><g><path d="m414.301 391.224c-4.139 0-7.493 3.355-7.493 7.493v23.007h-309.043v-138.413c14.473.012 35.486.023 66.053.033.658 0 1.302.266 1.766.732l32.042 32.041c6.199 6.616 18.131 1.635 17.829-7.383v-25.39h.109c15.149 0 27.475-12.325 27.475-27.475v-187.496c0-15.15-12.326-27.475-27.475-27.475h-117.8v-13.423c0-6.886 5.602-12.489 12.489-12.489h195.324c4.139 0 7.493-3.355 7.493-7.493s-3.354-7.493-7.493-7.493h-195.323c-15.15 0-27.475 12.325-27.475 27.475v13.423h-14.746c-15.149 0-27.475 12.325-27.475 27.475v31.7c0 4.138 3.354 7.493 7.493 7.493s7.493-3.355 7.493-7.493v-31.7c0-6.886 5.602-12.489 12.489-12.489h147.532c6.886 0 12.489 5.602 12.489 12.489v187.496c0 6.886-5.602 12.489-12.489 12.489h-3.606c-6.335 0-11.49 5.154-11.49 11.49v17.919l-24.287-24.287c-3.302-3.303-7.693-5.122-12.362-5.122-25.756-.008-92.306-.04-97.169-.085-6.349-.691-11.106-5.982-11.106-12.403v-120.216c0-4.138-3.354-7.493-7.493-7.493s-7.493 3.355-7.493 7.493v120.215c0 14.309 10.741 26.068 24.985 27.353v-.003c.534.03 2.735.054 17.235.075v201.231c0 15.15 12.326 27.475 27.475 27.475h284.066c15.149 0 27.475-12.325 27.475-27.475v-85.808c-.001-4.139-3.355-7.493-7.494-7.493zm-7.493 93.301c0 6.886-5.602 12.489-12.489 12.489h-284.065c-6.886 0-12.489-5.602-12.489-12.489v-47.814h309.043z"/><path d="m228.12 476.354h48.332c4.139 0 7.493-3.355 7.493-7.493s-3.354-7.493-7.493-7.493h-48.332c-4.139 0-7.493 3.355-7.493 7.493s3.354 7.493 7.493 7.493z"/><path d="m160.45 194.074h-37.127c-.987 0-1.681.98-1.355 1.912 2.88 8.236 10.7 14.15 19.919 14.15s17.039-5.914 19.919-14.15c.325-.932-.369-1.912-1.356-1.912z"/><path d="m165.72 155.883c-4.554 0-8.245 3.692-8.245 8.245s3.692 8.245 8.245 8.245 8.245-3.691 8.245-8.245-3.691-8.245-8.245-8.245z"/><path d="m126.298 164.128c0-4.554-3.692-8.245-8.245-8.245-4.554 0-8.245 3.692-8.245 8.245s3.692 8.245 8.245 8.245c4.553.001 8.245-3.691 8.245-8.245z"/><path d="m185.642 78.443h-86.881c-10.312 0-18.701 8.389-18.701 18.701v50.165c-8.23.922-14.65 7.924-14.65 16.397v5.706c0 11.256 7.117 21.17 17.421 24.965 3.165 10.402 8.924 19.785 16.8 27.319l12.704 12.151c8.375 8.011 19.12 12.016 29.868 12.015 10.745 0 21.494-4.006 29.867-12.015l12.704-12.151c7.876-7.535 13.635-16.917 16.799-27.318 10.305-3.795 17.422-13.709 17.422-24.966v-5.706c0-8.473-6.42-15.475-14.65-16.397v-50.165c-.001-10.312-8.391-18.701-18.703-18.701zm-90.582 18.701c0-2.041 1.66-3.701 3.701-3.701h86.881c2.041 0 3.702 1.66 3.702 3.701v20.856c-14.589-6.442-30.687-9.811-47.143-9.811-16.455 0-32.552 3.369-47.142 9.811v-20.856zm108.934 72.268c0 5.53-3.94 10.317-9.369 11.384-3.255.639-5.855 3.132-6.626 6.352-2.172 9.081-6.873 17.279-13.594 23.708l-12.705 12.151c-10.935 10.459-28.064 10.458-38.997 0l-12.704-12.151c-6.722-6.429-11.423-14.627-13.596-23.71-.771-3.218-3.371-5.711-6.625-6.35-5.429-1.066-9.369-5.854-9.369-11.384v-5.706c0-.827.673-1.5 1.5-1.5h5.65c4.143 0 7.5-3.358 7.5-7.5v-20.042c14.206-7.51 30.443-11.474 47.142-11.474 16.7 0 32.938 3.965 47.143 11.475v20.042c0 4.142 3.357 7.5 7.5 7.5h5.65c.827 0 1.5.673 1.5 1.5z"/><g><path d="m350.728 280.421c-.986 0-1.68.979-1.354 1.91 2.878 8.229 10.69 14.137 19.901 14.137s17.023-5.909 19.901-14.137c.326-.931-.368-1.91-1.354-1.91z"/></g><g><circle cx="393.086" cy="250.504" r="8.238"/></g><g><circle cx="345.464" cy="250.504" r="8.238"/></g><path d="m431.417 234.429v-21.921c0-26.989-21.957-48.945-48.945-48.945h-26.394c-26.988 0-48.945 21.957-48.945 48.945v21.921c-8.23.922-14.65 7.924-14.65 16.397v5.706c0 11.354 7.013 21.182 17.425 24.973 3.167 10.398 8.934 19.789 16.797 27.311l12.703 12.151c8.375 8.011 19.12 12.016 29.868 12.015 10.745 0 21.494-4.006 29.867-12.015l12.703-12.152c7.864-7.522 13.63-16.912 16.797-27.311 10.414-3.792 17.425-13.619 17.425-24.973v-5.706c-.001-8.471-6.421-15.473-14.651-16.396zm-75.339-55.866h26.394c12.529 0 23.487 6.828 29.368 16.954-2.51-.757-5.169-1.168-7.922-1.168h-69.284c-2.754 0-5.412.412-7.922 1.168 5.88-10.126 16.837-16.954 29.366-16.954zm74.989 77.969c0 5.464-3.726 10.118-9.062 11.318-3.477.783-6.183 3.446-7.064 6.951-2.228 8.867-6.883 16.881-13.464 23.175l-12.704 12.152c-10.934 10.46-28.063 10.458-38.997 0l-12.704-12.151c-6.581-6.295-11.236-14.309-13.462-23.166-.877-3.508-3.585-6.175-7.068-6.959-5.25-1.181-9.06-5.941-9.06-11.318v-5.706c0-.827.673-1.5 1.5-1.5h4.65c4.687 0 8.5-3.813 8.5-8.5v-18.978c0-6.893 5.607-12.5 12.5-12.5h69.284c6.893 0 12.5 5.607 12.5 12.5v18.978c0 4.687 3.813 8.5 8.5 8.5h4.65c.827 0 1.5.673 1.5 1.5v5.704z"/></g></g></g></svg>