<svg height="512pt" viewBox="0 0 512 512" width="512pt" xmlns="http://www.w3.org/2000/svg"><path d="m504.5 37.5v437c0 16.570312-13.429688 30-30 30h-437c-16.570312 0-30-13.429688-30-30v-437c0-16.570312 13.429688-30 30-30h437c16.570312 0 30 13.429688 30 30zm0 0" fill="#1680f6"/><path d="m69.839844 504.5h-32.339844c-16.570312 0-30-13.429688-30-30v-437c0-16.570312 13.429688-30 30-30h32.339844c-16.570313 0-30 13.429688-30 30v437c0 16.570312 13.429687 30 30 30zm0 0" fill="#439ef4"/><path d="m504.5 37.5v437c0 16.570312-13.429688 30-30 30h-193.199219c148.109375-170.640625 164.988281-408.660156 165.820313-497h27.378906c16.570312 0 30 13.429688 30 30zm0 0" fill="#4c60dc"/><path d="m291.210938 204.824219v42.082031h62.46875c6.269531 0 11.359374 5.089844 11.359374 11.359375v47.703125c0 6.269531-5.089843 11.359375-11.359374 11.359375h-62.46875v187.171875h-70.421876v-187.171875h-62.46875c-6.269531 0-11.359374-5.089844-11.359374-11.359375v-47.703125c0-6.269531 5.089843-11.359375 11.359374-11.359375h62.46875v-49.03125c0-55.585938 45.058594-100.65625 100.65625-100.65625h32.234376c6.269531 0 11.359374 5.089844 11.359374 11.359375v47.703125c0 6.28125-5.089843 11.359375-11.359374 11.359375h-25.28125c-20.539063 0-37.1875 16.648437-37.1875 37.183594zm0 0" fill="#deefff"/><path d="m328.398438 175.140625h25.28125c10.398437 0 18.859374-8.460937 18.859374-18.859375v-47.707031c0-10.394531-8.460937-18.855469-18.859374-18.855469h-32.234376c-26.691406 0-52.332031 9.808594-72.1875 27.625-3.085937 2.765625-3.34375 7.503906-.578124 10.589844 2.765624 3.082031 7.507812 3.339844 10.59375.574218 17.101562-15.339843 39.183593-23.789062 62.171874-23.789062h32.234376c2.128906 0 3.859374 1.730469 3.859374 3.855469v47.707031c0 2.125-1.730468 3.859375-3.859374 3.859375h-25.28125c-24.640626 0-44.6875 20.042969-44.6875 44.683594v42.085937c0 4.140625 3.355468 7.5 7.5 7.5h62.46875c2.128906 0 3.859374 1.730469 3.859374 3.855469v47.707031c0 2.125-1.730468 3.855469-3.859374 3.855469h-62.46875c-4.144532 0-7.5 3.359375-7.5 7.5v74.613281c0 4.144532 3.355468 7.5 7.5 7.5 4.140624 0 7.5-3.355468 7.5-7.5v-67.113281h54.96875c10.398437 0 18.859374-8.457031 18.859374-18.855469v-47.707031c0-10.398437-8.460937-18.855469-18.859374-18.855469h-54.96875v-34.585937c0-16.367188 13.316406-29.683594 29.6875-29.683594zm0 0"/><path d="m474.5 0h-437c-20.679688 0-37.5 16.820312-37.5 37.5v194.238281c0 4.144531 3.359375 7.5 7.5 7.5s7.5-3.355469 7.5-7.5v-194.238281c0-12.40625 10.09375-22.5 22.5-22.5h437c12.40625 0 22.5 10.09375 22.5 22.5v437c0 12.40625-10.09375 22.5-22.5 22.5h-175.789062v-70.535156c0-4.144532-3.359376-7.5-7.5-7.5-4.144532 0-7.5 3.355468-7.5 7.5v70.535156h-55.421876v-179.671875c0-4.140625-3.355468-7.5-7.5-7.5h-62.46875c-2.128906 0-3.859374-1.730469-3.859374-3.859375v-47.703125c0-2.128906 1.730468-3.859375 3.859374-3.859375h62.46875c4.144532 0 7.5-3.355469 7.5-7.5v-49.03125c0-15.382812 3.828126-30.625 11.070313-44.082031 1.964844-3.648438.601563-8.195313-3.046875-10.160157-3.648438-1.960937-8.195312-.597656-10.160156 3.050782-8.414063 15.632812-12.863282 33.335937-12.863282 51.1875v41.535156h-54.96875c-10.398437 0-18.859374 8.457031-18.859374 18.859375v47.703125c0 10.398438 8.460937 18.859375 18.859374 18.859375h54.96875v172.171875h-175.789062c-12.40625 0-22.5-10.09375-22.5-22.5v-208.238281c0-4.144531-3.359375-7.5-7.5-7.5s-7.5 3.355469-7.5 7.5v208.238281c0 20.679688 16.820312 37.5 37.5 37.5h437c20.679688 0 37.5-16.820312 37.5-37.5v-437c0-20.679688-16.820312-37.5-37.5-37.5zm0 0"/></svg>