<svg id="Capa_1" enable-background="new 0 0 512 512" height="512" viewBox="0 0 512 512" width="512" xmlns="http://www.w3.org/2000/svg"><g><g><g><path d="m504.5 78.01v355.98c0 5.52-4.48 10-10 10h-477c-5.52 0-10-4.48-10-10v-355.98c0-5.52 4.48-10 10-10h477c5.52 0 10 4.48 10 10z" fill="#7a48ff"/><path d="m173.167 444.094h-155.667c-5.523 0-10-4.477-10-10v-303.054h165.667z" fill="#ff5677"/><path d="m494.5 444.094h-155.667v-313.054h165.667v303.054c0 5.523-4.477 10-10 10z" fill="#ffb800"/><path d="m504.5 78.01v355.98c0 5.52-4.48 10-10 10h-119.78c110.64-95.77 108.18-318.45 105.57-375.98h14.21c5.52 0 10 4.48 10 10z" fill="#ff9700"/><path d="m338.83 193.65v187.84h-258.64c-5.52 0-10-4.48-10-10v-167.84c0-5.52 4.48-10 10-10z" fill="#e8e6ed"/><path d="m338.83 193.65v187.84h-69.62c31.54-56.64 46.01-126.94 52.33-187.84z" fill="#d1d0d8"/><path d="m504.5 78.01v53.03h-497v-53.03c0-5.52 4.48-10 10-10h477c5.52 0 10 4.48 10 10z" fill="#aaaab2"/><path d="m504.5 78.01v53.03h-23.83c.82-27.46.23-49.69-.38-63.03h14.21c5.52 0 10 4.48 10 10z" fill="#898993"/></g><path d="m179.47 340.938h-47.606c-7.289 0-13.197-5.909-13.197-13.197 0-7.289 5.909-13.197 13.197-13.197h47.606c7.289 0 13.197 5.909 13.197 13.197 0 7.288-5.908 13.197-13.197 13.197z" fill="#ff2953"/><g><g><g><circle cx="423.944" cy="241.029" fill="#e8e6ed" r="32.623"/></g></g></g></g><g><path d="m504.5 180.898c4.143 0 7.5-3.358 7.5-7.5v-95.385c0-9.649-7.851-17.5-17.5-17.5h-120.18c-4.143 0-7.5 3.358-7.5 7.5s3.357 7.5 7.5 7.5h120.18c1.379 0 2.5 1.122 2.5 2.5v45.527h-482v-45.527c0-1.378 1.121-2.5 2.5-2.5h322.297c4.143 0 7.5-3.358 7.5-7.5s-3.357-7.5-7.5-7.5h-322.297c-9.649 0-17.5 7.851-17.5 17.5v355.974c0 9.649 7.851 17.5 17.5 17.5h56.811c4.143 0 7.5-3.358 7.5-7.5s-3.357-7.5-7.5-7.5h-56.811c-1.379 0-2.5-1.122-2.5-2.5v-295.446h150.667v47.608h-85.479c-9.649 0-17.5 7.851-17.5 17.5v167.838c0 9.649 7.851 17.5 17.5 17.5h85.479v47.5h-56.833c-4.143 0-7.5 3.358-7.5 7.5s3.357 7.5 7.5 7.5h385.666c9.649 0 17.5-7.851 17.5-17.5v-226.067c0-4.142-3.357-7.5-7.5-7.5s-7.5 3.358-7.5 7.5v226.066c0 1.378-1.121 2.5-2.5 2.5h-148.167v-297.945h150.667v34.857c0 4.142 3.357 7.5 7.5 7.5zm-426.812 190.588v-167.838c0-1.378 1.121-2.5 2.5-2.5h251.145v172.838h-251.145c-1.378 0-2.5-1.121-2.5-2.5zm102.979 65.001v-47.5h150.666v47.5zm150.666-250.339h-150.666v-47.608h150.666z"/><path d="m47.433 92.027c-4.143 0-7.5 3.358-7.5 7.5s3.357 7.5 7.5 7.5h.113c4.143 0 7.5-3.358 7.5-7.5s-3.357-7.5-7.5-7.5z"/><path d="m70.076 92.027c-4.143 0-7.5 3.358-7.5 7.5s3.357 7.5 7.5 7.5h.112c4.143 0 7.5-3.358 7.5-7.5s-3.357-7.5-7.5-7.5z"/><path d="m92.72 92.027c-4.143 0-7.5 3.358-7.5 7.5s3.357 7.5 7.5 7.5h.112c4.143 0 7.5-3.358 7.5-7.5s-3.357-7.5-7.5-7.5z"/><path d="m464.567 107.027c4.143 0 7.5-3.358 7.5-7.5s-3.357-7.5-7.5-7.5h-13.956c-4.143 0-7.5 3.358-7.5 7.5s3.357 7.5 7.5 7.5z"/><path d="m120 242.4h75c4.143 0 7.5-3.358 7.5-7.5s-3.357-7.5-7.5-7.5h-75c-4.143 0-7.5 3.358-7.5 7.5s3.357 7.5 7.5 7.5z"/><path d="m281 262.634h-161c-4.143 0-7.5 3.358-7.5 7.5s3.357 7.5 7.5 7.5h161c4.143 0 7.5-3.358 7.5-7.5s-3.357-7.5-7.5-7.5z"/><path d="m271 283.501h-151c-4.143 0-7.5 3.358-7.5 7.5s3.357 7.5 7.5 7.5h151c4.143 0 7.5-3.358 7.5-7.5s-3.357-7.5-7.5-7.5z"/><path d="m179.471 307.043h-47.606c-11.412 0-20.696 9.285-20.696 20.697s9.284 20.697 20.696 20.697h47.606c11.412 0 20.697-9.285 20.697-20.697s-9.285-20.697-20.697-20.697zm0 26.395h-47.606c-3.141 0-5.696-2.556-5.696-5.697s2.556-5.697 5.696-5.697h47.606c3.142 0 5.697 2.556 5.697 5.697s-2.556 5.697-5.697 5.697z"/><path d="m454.813 301.342h-61.738c-4.143 0-7.5 3.358-7.5 7.5s3.357 7.5 7.5 7.5h61.738c4.143 0 7.5-3.358 7.5-7.5s-3.358-7.5-7.5-7.5z"/><path d="m454.813 323.157h-31.398c-4.143 0-7.5 3.358-7.5 7.5s3.357 7.5 7.5 7.5h31.398c4.143 0 7.5-3.358 7.5-7.5s-3.358-7.5-7.5-7.5z"/><path d="m393.074 338.157h10.686c4.143 0 7.5-3.358 7.5-7.5s-3.357-7.5-7.5-7.5h-10.686c-4.143 0-7.5 3.358-7.5 7.5s3.358 7.5 7.5 7.5z"/><path d="m393.074 359.972h61.738c4.143 0 7.5-3.358 7.5-7.5s-3.357-7.5-7.5-7.5h-61.738c-4.143 0-7.5 3.358-7.5 7.5s3.358 7.5 7.5 7.5z"/><path d="m425.656 223.776c-3.035-2.818-7.781-2.64-10.599.396s-2.641 7.782.396 10.6l6.743 6.258-6.743 6.259c-3.036 2.817-3.214 7.563-.396 10.599 1.478 1.592 3.485 2.398 5.499 2.398 1.825 0 3.656-.663 5.1-2.003l12.667-11.756c1.529-1.419 2.398-3.411 2.398-5.497s-.869-4.078-2.398-5.498z"/><path d="m423.943 200.906c-22.124 0-40.123 17.999-40.123 40.123s17.999 40.124 40.123 40.124 40.124-18 40.124-40.124-18-40.123-40.124-40.123zm0 65.247c-13.853 0-25.123-11.271-25.123-25.124s11.271-25.123 25.123-25.123c13.854 0 25.124 11.27 25.124 25.123s-11.27 25.124-25.124 25.124z"/></g></g></svg>