<svg id="Capa_1" enable-background="new 0 0 512.026 512.026" height="512" viewBox="0 0 512.026 512.026" width="512" xmlns="http://www.w3.org/2000/svg"><g><g><path d="m502.026 495.7v-21.978c0-68.923-55.685-128.01-124.739-130.879h-60.772c-14.527 20.719-37.14 31.073-59.742 31.073-22.613 0-45.225-10.354-59.752-31.073h-62.885c-68.834 3.325-124.136 62.009-124.136 130.85v22.007z" fill="#ff7e96"/></g><g><path d="m366.402 342.843c-9.103 13.786-17.513 28.286-29.407 39.915-21.307 20.831-50.403 32.783-80.222 32.783-37.207 0-72.953-18.679-94.155-49.263l-15.484-23.435h49.887c14.527 20.719 37.14 31.073 59.752 31.073 22.602 0 45.215-10.354 59.742-31.073z" fill="#eaf0f0"/></g><g><path d="m316.517 342.846-.002.003c-29.059 41.425-90.43 41.425-119.489 0l-.002-.003 9.504-59.159c14.55 7.863 31.194 12.321 48.891 12.321 19.09 0 36.88-5.252 52.111-14.323z" fill="#ffd0c6"/></g><g><path d="m358.421 136.467v59.773c-1.946 54.279-46.807 99.775-103.001 99.775-54.914 0-101.023-44.955-102.99-99.785v-59.773c.427-12.05 2.976-23.664 7.305-34.455l112.938-18.128c11.613-1.561 20.292-11.488 20.292-23.216v2.3c0 10.698 7.243 20.042 17.618 22.686l40.001 10.24c5.693 12.715 7.431 29.397 7.837 40.583z" fill="#ffd0c6"/></g><g><path d="m231.31 158.799c0 22.092-18.079 40.592-40.167 40.169-21.404-.409-38.63-17.889-38.63-39.391 0-3.182-.015-7.217-.033-10.783-.023-4.76 3.829-8.627 8.589-8.627h61.651c4.744 0 8.589 3.846 8.589 8.589v10.043z" fill="#eaf0f0"/></g><g><path d="m358.421 158.799c0 22.092-18.079 40.592-40.167 40.169-21.405-.409-38.63-17.889-38.63-39.391 0-3.182-.015-7.217-.033-10.783-.023-4.76 3.829-8.627 8.589-8.627h61.651c4.744 0 8.589 3.846 8.589 8.589v10.043z" fill="#eaf0f0"/></g><g><path d="m272.669 83.877c-34.186 5.048-136.479 21.902-136.479 21.902s17.775-76.957 104.722-88.901c0 0 14.801-1.497 31.253.451 11.862 1.404 20.797 11.472 20.797 23.417v19.918c0 11.725-8.692 21.5-20.293 23.213z" fill="#ffce62"/></g><g><path d="m292.962 41.657v21.298c0 10.7 7.251 20.04 17.616 22.693l63.699 16.304s-12.374-48.894-61.869-72.604c-9.013-4.318-19.446 2.315-19.446 12.309z" fill="#ffce62"/></g><g><path d="m377.702 332.852c-.138-.006-.276-.009-.415-.009h-52.132l-6.787-46.184c5.622-3.823 10.948-8.174 15.903-13.043 20.976-20.608 33.101-47.96 34.143-77.017.004-.12.006-.239.006-.358v-29.549h4.746c5.523 0 10-4.477 10-10s-4.477-10-10-10h-4.746v-10.224c0-.121-.002-.242-.006-.362-.269-7.406-1.06-16.742-3.02-26.105l6.404 1.639c7.116 1.825 13.991-4.962 12.174-12.141-.552-2.182-14.134-53.728-67.244-79.169-6.595-3.159-14.124-3.066-20.587.141-5.347-7.053-13.432-11.963-22.8-13.072-17.343-2.052-32.787-.535-33.436-.47-.119.012-.237.026-.354.042-48.367 6.644-76.535 32.432-91.649 52.896-16.356 22.146-21.255 42.794-21.456 43.662-1.549 6.71 4.527 13.239 11.369 12.118.164-.027 2.921-.481 7.557-1.242-1.676 7.11-2.677 14.361-2.937 21.7-.004.118-.006.236-.006.354v10.234h-3.756c-5.523 0-10 4.477-10 10s4.477 10 10 10h3.756v29.539c0 .12.002.239.006.358 1.38 38.473 22.49 72.369 53.195 91.885l-7.128 44.369h-54.367c-.161 0-.322.004-.482.012-35.837 1.731-69.455 17.347-94.66 43.97-25.145 26.559-38.993 60.961-38.993 96.867v22.007c0 5.523 4.477 10 10 10h201.233c5.523 0 10-4.477 10-10s-4.477-10-10-10h-118.931v-32.509c0-5.523-4.477-10-10-10s-10 4.477-10 10v32.509h-52.302v-12.007c0-63.513 51.288-117.676 114.382-120.85h7.372c9.947 15.054 19.293 29.938 33.067 41.955 22.555 19.677 52.017 30.743 81.951 30.743 29.937 0 59.398-11.077 81.954-30.757 13.777-12.021 23.112-26.882 33.055-41.941h5.293c63.406 2.743 114.951 56.927 114.951 120.879v11.978h-51.241v-32.509c0-5.523-4.477-10-10-10s-10 4.477-10 10v32.509h-118c-5.523 0-10 4.477-10 10s4.477 10 10 10h199.241c5.523 0 10-4.477 10-10v-21.978c.001-74.598-60.256-137.793-134.323-140.87zm-88.078-173.42c0-2.753-.012-6.115-.026-9.264h58.823v8.631c0 16.175-13.583 30.497-29.976 30.171-15.892-.304-28.821-13.489-28.821-29.393 0-.038 0-.079 0-.117 0-.009 0-.019 0-.028zm15.046-120.857c1.121-.68 2.261-.75 3.418-.209 26.805 12.841 41.791 34.072 49.485 48.988l-4.431-1.134c-.026-.007-.051-.018-.078-.025l-40.012-10.242c-7.336-1.869-10.042-8.41-10.091-15.372v-18.924c.001-1.746 1.071-2.68 1.709-3.082zm-62.604-11.763c1.573-.142 14.706-1.236 28.923.446 7.153.847 12.311 7.3 11.972 14.398v19.005c0 6.821-5.294 12.46-11.976 13.355-25.594 3.784-89.079 14.133-119.566 19.127 9.738-21.241 34.553-58.543 90.647-66.331zm32.064 66.958c6.508-.961 12.736-3.798 17.664-8.169 4.35 4.73 10.08 8.142 16.304 9.735l35.071 8.976c2.945 8.483 4.276 18.271 4.873 25.856h-59.862c-4.984 0-9.665 1.945-13.179 5.477-.954.959-1.78 2.009-2.492 3.122-5.17-2.656-10.985-4.11-17.043-4.11-6.073 0-11.904 1.46-17.084 4.129-3.305-5.172-9.083-8.618-15.663-8.618h-59.82c.706-6.531 2.11-12.961 4.198-19.22l106.953-17.167c.026-.003.054-.008.08-.011zm-111.643 56.398h58.823v8.631c0 16.176-13.583 30.497-29.976 30.171-15.892-.304-28.821-13.489-28.821-29.393 0-.857-.026-9.409-.026-9.409zm.125 49.06c7.975 5.93 17.763 9.536 28.34 9.738 26.156.526 48.402-20.857 50.221-46.712 3.194-4.787 8.405-7.598 14.294-7.598 5.847 0 11.027 2.77 14.227 7.496 1.352 25.741 23.529 46.823 49.312 46.823 10.613 0 20.758-3.446 29.224-9.828-3.41 48.003-44.779 86.86-92.811 86.86-47.9 0-89.351-39.107-92.807-86.779zm81.657 106.221c18.813 1.866 38.019-1.043 55.393-8.521l6.358 43.266c-11.848 14.954-30.002 23.665-49.063 23.719-19.151.057-37.464-8.647-49.39-23.653l6.743-41.976c9.603 3.74 19.711 6.123 29.959 7.165zm98.379 55.22-.239.344c-19.563 27.882-51.577 44.528-85.636 44.528-38.826 0-70.239-21.207-91.046-52.698h26.291c15.658 19.648 39.642 31.075 64.753 31.075 25.042 0 49.057-11.352 64.755-31.075h26.291z"/><path d="m247.104 236.021h16.313c5.523 0 10-4.477 10-10s-4.477-10-10-10h-6.766l7.057-20.71c1.782-5.228-1.012-10.91-6.24-12.691-5.229-1.778-10.91 1.013-12.691 6.24l-10.136 29.747c-1.367 4.012-.711 8.464 1.756 11.91 2.467 3.447 6.47 5.504 10.707 5.504z"/><path d="m266.003 491.874c-1.64-3.938-5.709-6.463-9.971-6.145-4.162.311-7.775 3.282-8.894 7.301-2.382 8.549 7.202 15.76 14.773 11.244 4.196-2.502 5.969-7.895 4.092-12.4z"/></g></g></svg>