<svg id="Repair_Service" height="512" viewBox="0 0 64 64" width="512" xmlns="http://www.w3.org/2000/svg" data-name="Repair Service"><path d="m15 14h34v4h-34z" fill="#57565c"/><path d="m44 9v5c0 .02-1.96 0-1.96 0a.043.043 0 0 0 -.04.04v5.28a2.623 2.623 0 0 1 -2.27 2.67 2.5 2.5 0 0 1 -2.69-2.06.041.041 0 0 0 -.08 0 2.5 2.5 0 0 1 -4.92 0 .042.042 0 0 0 -.08 0 2.5 2.5 0 0 1 -4.92 0 .041.041 0 0 0 -.08 0 2.5 2.5 0 0 1 -2.69 2.06 2.623 2.623 0 0 1 -2.27-2.67v-11.31c0-.01 0-.01.01-.02l1.98-2.98c.01-.01.01-.01.01-.02s-.02-2.99 0-2.99h16c.02 0 0 2.96 0 2.96a.043.043 0 0 0 .04.04s3.96 3.99 3.96 4z" fill="#ffcbbe"/><path d="m3 26h58v12h-58z" fill="#fb961f"/><path d="m18 18h4v8h-4z" fill="#898890"/><path d="m42 18h4v8h-4z" fill="#898890"/><path d="m3 38h58v23h-58z" fill="#ffc740"/><path d="m20.1 34.1 4 4 2.121-.707.708-2.121-4-4a5.991 5.991 0 0 1 8.578 5.486 3.932 3.932 0 0 0 1.164 2.842l9.815 9.815a3 3 0 0 1 0 4.242 3 3 0 0 1 -4.243 0l-9.807-9.807a4.064 4.064 0 0 0 -2.9-1.167 5.99 5.99 0 0 1 -5.436-8.583z" fill="#d8d7da"/><path d="m38.657 30.343a3 3 0 0 1 3 3v11a0 0 0 0 1 0 0h-6a0 0 0 0 1 0 0v-11a3 3 0 0 1 3-3z" fill="#8cc63e" transform="matrix(.707 .707 -.707 .707 37.728 -16.397)"/><path d="m28.757 50.071 6.364-6.364-2.828-2.828-6.364 6.364h-1.414l-3.536 4.949 2.829 2.829 4.949-3.536z" fill="#e9e9ea"/><path d="m8 35h5v7h-5z" fill="#787680"/><path d="m51 35h5v7h-5z" fill="#787680"/><path d="m61 25h-14v-6h2a1 1 0 0 0 1-1v-4a1 1 0 0 0 -1-1h-4v-3.99c0-.41 0-.42-4-4.46v-2.55h-2v2.96a1.039 1.039 0 0 0 .33.74s2.77 2.81 3.67 3.72v3.57c-.48.01-.96.01-.96.01a1.073 1.073 0 0 0 -1.04 1.04v5.28a1.624 1.624 0 0 1 -1.36 1.67 1.5 1.5 0 0 1 -1.62-1.23.142.142 0 0 0 -.02-.06v-4.7h-2v4.7c0 .02-.02.04-.02.06a1.5 1.5 0 0 1 -2.96.01.145.145 0 0 0 -.02-.07v-4.7h-2v4.7a.142.142 0 0 0 -.02.06 1.5 1.5 0 0 1 -2.96 0 .142.142 0 0 0 -.02-.06v-4.7h-2v4.7c0 .02-.02.04-.02.06a1.5 1.5 0 0 1 -1.62 1.23 1.624 1.624 0 0 1 -1.36-1.67v-11.02l1.81-2.71a1.068 1.068 0 0 0 .19-.6v-2.99h-2v2.7l-1.81 2.71a1.068 1.068 0 0 0 -.19.6v4.99h-6a1 1 0 0 0 -1 1v4a1 1 0 0 0 1 1h2v6h-14a1 1 0 0 0 -1 1v35a1 1 0 0 0 1 1h58a1 1 0 0 0 1-1v-35a1 1 0 0 0 -1-1zm-18-10h5v2h-5zm0 4h2v6h-2zm-20 3.64a3.219 3.219 0 0 0 1.19.35c.1.01.21.01.31.01a3.5 3.5 0 0 0 2.5-1.04 3.513 3.513 0 0 0 5-.01 3.513 3.513 0 0 0 5 .01 3.528 3.528 0 0 0 2.81 1.03 3.219 3.219 0 0 0 1.19-.35v2.36h-18zm-7-5.64v-2h5v2zm5 2v6h-2v-6zm39 41h-56v-21h3v3a1 1 0 0 0 1 1h5a1 1 0 0 0 1-1v-3h4.92a6.575 6.575 0 0 0 .91 1.79 6.971 6.971 0 0 0 5.66 2.89 3.088 3.088 0 0 1 1.95.64l-1.93 1.92h-1a1.009 1.009 0 0 0 -.81.42l-3.53 4.95a1 1 0 0 0 .1 1.29l2.83 2.83a1.007 1.007 0 0 0 .71.29.981.981 0 0 0 .58-.19l4.95-3.53a1.009 1.009 0 0 0 .42-.81v-1l1.95-1.96 5.82 5.84a4.009 4.009 0 0 0 5.67-5.67l-5.12-5.12 4.58-4.58h7.34v3a1 1 0 0 0 1 1h5a1 1 0 0 0 1-1v-3h3zm-51-19v-5h3v5zm18.64-6.44-2.83-2.82a5 5 0 0 1 4.24 1.41 4.919 4.919 0 0 1 1.46 3.6 4.863 4.863 0 0 0 .63 2.45l-.26.26a1.008 1.008 0 0 0 0 1.42l-2.03 2.02a5.049 5.049 0 0 0 -3.32-1.22 5.046 5.046 0 0 1 -4.08-2.07 4.987 4.987 0 0 1 -.88-3.63l2.82 2.83a1.007 1.007 0 0 0 1.03.24l2.12-.71a1.011 1.011 0 0 0 .63-.63l.71-2.12a1.028 1.028 0 0 0 -.24-1.03zm8.19 8.44-2.83-2.83 7.07-7.07a2.041 2.041 0 0 1 2.83 0 1.992 1.992 0 0 1 0 2.83zm.83 2 5.12 5.12a2.013 2.013 0 0 1 .01 2.83 2.054 2.054 0 0 1 -2.84 0l-5.83-5.83 2-2a.99.99 0 0 0 .71.29 1.007 1.007 0 0 0 .71-.29zm-2.95-1.29-5.66 5.65a1.007 1.007 0 0 0 -.29.71v.9l-3.84 2.74-1.63-1.63 2.74-3.84h.9a1.007 1.007 0 0 0 .71-.29l5.65-5.66zm18.29-2.71v-5h3v5zm8-4h-3v-2a1 1 0 0 0 -1-1h-5a1 1 0 0 0 -1 1v2h-5.4a4.01 4.01 0 0 0 .89-2.49 4 4 0 0 0 -6.83-2.82l-6 6a2.906 2.906 0 0 1 -.15-.92 6.889 6.889 0 0 0 -2.05-5.04 7 7 0 0 0 -7.96-1.35 1 1 0 0 0 -.56.73 1.022 1.022 0 0 0 .28.88l3.56 3.55-.35 1.06-1.06.36-3.56-3.57a1 1 0 0 0 -1.61.28 6.978 6.978 0 0 0 -.66 3.33h-4.54v-2a1 1 0 0 0 -1-1h-5a1 1 0 0 0 -1 1v2h-3v-10h56z"/></svg>