<svg id="Layer_1" enable-background="new 0 0 513.042 513.042" height="512" viewBox="0 0 513.042 513.042" width="512" xmlns="http://www.w3.org/2000/svg"><g><g><g><g><circle cx="442.255" cy="174.149" fill="#a6f5cf" r="63.287"/><path d="m442.255 110.861c-6.989 0-13.714 1.133-20 3.225 25.151 8.371 43.287 32.099 43.287 60.062s-18.136 51.691-43.287 60.062c6.286 2.092 13.011 3.225 20 3.225 34.953 0 63.287-28.335 63.287-63.287s-28.335-63.287-63.287-63.287z" fill="#8aedbd"/></g><g><circle cx="70.513" cy="174.423" fill="#ff8ccc" r="63.013"/><path d="m70.513 111.41c-6.991 0-13.716 1.139-20 3.24 24.997 8.36 43.013 31.962 43.013 59.772s-18.016 51.412-43.013 59.772c6.284 2.102 13.009 3.24 20 3.24 34.801 0 63.013-28.212 63.013-63.013s-28.212-63.011-63.013-63.011z" fill="#ff78c2"/></g><g><g><circle cx="257.042" cy="71.634" fill="#ffd54d" r="63.499"/></g><path d="m257.042 8.135c-6.988 0-13.712 1.129-20 3.214 25.27 8.379 43.499 32.204 43.499 60.286s-18.229 51.906-43.499 60.286c6.288 2.085 13.012 3.214 20 3.214 35.07 0 63.499-28.43 63.499-63.499 0-35.072-28.429-63.501-63.499-63.501z" fill="#ffc919"/></g></g><g><circle cx="256.91" cy="246.686" fill="#b36212" r="46.111"/><circle cx="256.91" cy="352.48" fill="#b36212" r="106.746"/><g><path d="m149.478 505.135c0-59.333 48.099-107.432 107.432-107.432s107.432 48.099 107.432 107.432z" fill="#d4d9ff"/></g><path d="m256.91 397.703c-6.835 0-13.52.639-20 1.859 49.776 9.372 87.432 53.075 87.432 105.573h40c0-59.333-48.099-107.432-107.432-107.432z" fill="#c7cdff"/><g><path d="m187.634 326.705c-2.562 7.469-3.972 15.473-3.972 23.81 0 40.523 32.851 73.374 73.374 73.374s73.374-32.851 73.374-73.374c0-8.338-1.41-16.342-3.973-23.81z" fill="#ffdbd3"/></g><path d="m326.437 326.705h-40c2.562 7.469 3.973 15.473 3.973 23.81 0 33.59-22.571 61.908-53.374 70.615 6.358 1.797 13.067 2.759 20 2.759 40.523 0 73.374-32.851 73.374-73.374 0-8.338-1.411-16.341-3.973-23.81z" fill="#ffd1c7"/></g></g><g><path d="m383.021 102.385c3.671 2.533 7.185 2.149 10.54-1.15 2.59-3.23 2.08-7.95-1.149-10.55-3.23-2.59-7.95-2.07-10.551 1.16-2.59 3.219-2.079 7.949 1.16 10.54z"/><path d="m350.861 81.094c3.447 1.859 8.297.401 10.15-3.06 1.96-3.65.59-8.2-3.06-10.16-3.65-1.95-8.2-.58-10.16 3.07-1.959 3.65-.579 8.191 3.07 10.15z"/><path d="m375.602 429.394c-3.359 2.41-4.13 7.1-1.71 10.46 3.256 3.478 6.746 4.048 10.47 1.71 3.36-2.42 4.131-7.11 1.711-10.47-2.422-3.36-7.111-4.12-10.471-1.7z"/><path d="m415.332 403.874c-2.99-2.87-7.74-2.77-10.601.22-2.87 2.99-2.77 7.74.221 10.61 3.564 2.845 7.097 2.772 10.6-.22 2.87-3 2.77-7.74-.22-10.61z"/><path d="m467.082 297.274c-4.05-.83-8.021 1.78-8.86 5.83-.84 4.06 1.771 8.03 5.83 8.86 3.693.799 8.1-2.135 8.86-5.82.84-4.06-1.77-8.029-5.83-8.87z"/><path d="m456.662 335.865c-3.82-1.6-8.21.21-9.801 4.04-1.59 3.82.211 8.21 4.04 9.8 3.575 1.483 8.299-.424 9.801-4.04 1.6-3.821-.21-8.211-4.04-9.8z"/><path d="m469.932 257.425c-4.14-.05-7.53 3.27-7.58 7.41s3.271 7.54 7.42 7.59h.08c4.101 0 7.45-3.31 7.5-7.42.049-4.14-3.27-7.541-7.42-7.58z"/><path d="m439.162 371.784c-3.46-2.27-8.11-1.31-10.391 2.15-2.27 3.47-1.31 8.11 2.15 10.39 3.758 2.179 7.221 1.463 10.39-2.15 2.281-3.46 1.311-8.11-2.149-10.39z"/><path d="m124.362 104.034c1.65 0 3.31-.54 4.69-1.65 3.23-2.59 3.75-7.31 1.16-10.54-2.6-3.23-7.32-3.75-10.55-1.16-3.23 2.6-3.74 7.32-1.15 10.55 1.48 1.84 3.66 2.8 5.85 2.8z"/><path d="m157.672 81.984c1.2 0 2.41-.28 3.54-.89 3.65-1.96 5.02-6.5 3.06-10.15-1.95-3.65-6.5-5.02-10.15-3.07-3.65 1.96-5.02 6.51-3.06 10.16 1.35 2.52 3.94 3.95 6.61 3.95z"/><path d="m56.032 306.294c-.91-4.04-4.92-6.58-8.96-5.67-4.05.9-6.59 4.92-5.68 8.96.823 3.681 5.275 6.543 8.96 5.67 4.04-.9 6.58-4.91 5.68-8.96z"/><path d="m58.122 339.014c-3.79 1.66-5.53 6.08-3.88 9.87 1.56 3.588 6.315 5.43 9.87 3.89 3.8-1.66 5.54-6.08 3.88-9.87-1.65-3.8-6.07-5.539-9.87-3.89z"/><path d="m43.962 275.814c4.14-.12 7.41-3.57 7.29-7.71s-3.57-7.4-7.71-7.28c-4.14.11-7.4 3.56-7.29 7.7.12 4.07 3.45 7.29 7.5 7.29z"/><path d="m76.192 374.664c-3.43 2.32-4.32 6.99-1.99 10.42 3.199 3.558 6.673 4.222 10.42 1.99 3.42-2.33 4.31-6.99 1.99-10.42-2.33-3.43-6.99-4.32-10.42-1.99z"/><path d="m100.502 406.385c-2.95 2.91-2.98 7.66-.07 10.61 3.529 2.953 7.066 2.973 10.61.06 2.94-2.91 2.97-7.65.06-10.6-2.91-2.951-7.66-2.981-10.6-.07z"/><path d="m140.602 431.304c-3.4-2.36-8.08-1.53-10.44 1.87-2.37 3.4-1.54 8.07 1.86 10.44 3.735 2.287 7.215 1.667 10.44-1.86 2.37-3.4 1.54-8.079-1.86-10.45z"/><path d="m442.255 103.361c-39.032 0-70.788 31.755-70.788 70.788s31.756 70.787 70.788 70.787 70.787-31.755 70.787-70.787-31.755-70.788-70.787-70.788zm0 126.575c-30.762 0-55.788-25.026-55.788-55.787s25.026-55.788 55.788-55.788c30.761 0 55.787 25.026 55.787 55.788s-25.026 55.787-55.787 55.787z"/><path d="m466.256 149.906-35.972 32.791-12.029-10.975c-3.061-2.792-7.804-2.574-10.596.486-2.791 3.06-2.574 7.804.486 10.595l17.082 15.584c3.369 2.612 6.738 2.613 10.107.002l41.026-37.398c3.061-2.791 3.28-7.534.49-10.596-2.79-3.059-7.534-3.279-10.594-.489z"/><path d="m70.513 103.91c-11.132 0-21.806 2.538-31.724 7.543-3.698 1.867-5.183 6.377-3.316 10.075s6.379 5.183 10.075 3.316c7.803-3.938 16.202-5.935 24.965-5.935 30.61 0 55.513 24.903 55.513 55.513s-24.903 55.513-55.513 55.513-55.513-24.902-55.513-55.512c0-8.871 2.044-17.363 6.076-25.241 1.887-3.687.427-8.206-3.26-10.093-3.686-1.888-8.206-.429-10.093 3.26-5.125 10.014-7.723 20.805-7.723 32.074 0 38.881 31.632 70.513 70.513 70.513s70.513-31.632 70.513-70.513-31.632-70.513-70.513-70.513z"/><path d="m43.815 201.12c3.535 2.929 7.071 2.929 10.606 0l16.091-16.091 16.091 16.091c3.535 2.929 7.071 2.929 10.606 0 2.929-2.929 2.929-7.678 0-10.606l-16.091-16.091 16.091-16.091c2.929-2.929 2.929-7.678 0-10.606-2.929-2.929-7.678-2.929-10.606 0l-16.091 16.091-16.091-16.091c-2.929-2.929-7.678-2.929-10.606 0-2.929 2.929-2.929 7.678 0 10.606l16.091 16.091-16.091 16.091c-2.929 2.929-2.929 7.678 0 10.606z"/><path d="m257.042 142.633c39.149 0 70.999-31.85 70.999-70.999s-31.85-71-70.999-71-71 31.85-71 71c0 39.149 31.851 70.999 71 70.999zm0-126.998c30.878 0 55.999 25.121 55.999 56 0 30.878-25.121 55.999-55.999 55.999s-56-25.121-56-55.999c0-30.879 25.122-56 56-56z"/><path d="m236.36 79.134h41.365c4.143 0 7.5-3.358 7.5-7.5s-3.357-7.5-7.5-7.5h-41.365c-4.142 0-7.5 3.358-7.5 7.5s3.358 7.5 7.5 7.5z"/><path d="m342.385 428.292c18.607-20.916 28.771-47.563 28.771-75.812 0-18.777-4.655-37.397-13.462-53.848-4.575-8.552-17.802-1.47-13.225 7.079 7.646 14.281 11.687 30.454 11.687 46.769 0 24.299-8.657 47.232-24.518 65.32-5.008-4.288-10.384-8.146-16.075-11.526 13.839-14.52 22.347-34.164 22.347-55.759 0-8.945-1.473-17.775-4.377-26.244-1.04-3.031-3.891-5.067-7.095-5.067h-138.804c-3.204 0-6.055 2.036-7.094 5.066-2.905 8.47-4.378 17.299-4.378 26.244 0 21.547 8.471 41.153 22.257 55.664-5.75 3.403-11.18 7.292-16.234 11.62-15.853-18.094-24.52-41.073-24.52-65.319 0-53.996 45.233-99.246 99.246-99.246 23.867 0 46.933 8.594 64.948 24.2 7.328 6.352 17.15-4.989 9.82-11.338-6.589-5.708-13.765-10.601-21.37-14.621 2.741-30.887-22.332-58.4-53.398-58.4-31.049 0-56.152 27.501-53.397 58.423-36.164 19.2-60.849 57.262-60.849 100.982 0 28.187 10.176 54.888 28.773 75.81-4.099 4.56-7.847 9.459-11.2 14.662-11.945 18.535-18.259 40.037-18.259 62.183 0 9.697 15 9.697 15 0 0-37.036 20.876-71.352 53.51-88.518 13.171 9.302 29.232 14.772 46.548 14.772 17.268 0 33.29-5.44 46.441-14.697 32.55 17.191 53.365 51.461 53.365 88.442 0 9.697 15 9.697 15 0 0-22.146-6.313-43.648-18.259-62.183-3.354-5.2-7.101-10.098-11.199-14.658zm-85.475-220.217c20.704 0 37.655 16.381 38.572 36.864-12.277-4.401-25.317-6.705-38.572-6.705-13.529 0-26.516 2.364-38.571 6.7.92-20.48 17.868-36.859 38.571-36.859zm-65.748 142.44c0-5.519.689-10.985 2.052-16.311h127.645c1.362 5.326 2.051 10.791 2.051 16.311 0 36.323-29.551 65.874-65.874 65.874-36.324 0-65.874-29.551-65.874-65.874z"/></g></g></svg>