<svg height="512" viewBox="0 0 512 512" width="512" xmlns="http://www.w3.org/2000/svg"><g id="Filled_outline" data-name="Filled outline"><path d="m408 256v48h-96v-48a15.989 15.989 0 0 0 16-16v-16h64v16a15.979 15.979 0 0 0 16 16z" fill="#fdc8a2"/><path d="m393.27 246.24a76.106 76.106 0 0 1 -68.31 3.15 15.959 15.959 0 0 0 3.04-9.39v-16h64v16a15.851 15.851 0 0 0 1.27 6.24z" fill="#fdbf92"/><path d="m243.931 286.173-19.931 49.827h64v120h144v-120h56v-32a48 48 0 0 0 -48-48h-32l-8.974 11.965a50.087 50.087 0 0 1 -40.07 20.035 50.088 50.088 0 0 1 -44.8-27.688l-2.156-4.312h-23.5a48 48 0 0 0 -44.569 30.173z" fill="#de5540"/><path d="m240 456h-64l48-120h64z" fill="#fdc8a2"/><path d="m440 128h16a0 0 0 0 1 0 0v48a0 0 0 0 1 0 0h-16a24 24 0 0 1 -24-24 24 24 0 0 1 24-24z" fill="#fdb683" transform="matrix(-1 0 0 -1 872 304)"/><path d="m280 128h16a0 0 0 0 1 0 0v48a0 0 0 0 1 0 0h-16a24 24 0 0 1 -24-24 24 24 0 0 1 24-24z" fill="#fdb683"/><path d="m328 64h56a48 48 0 0 1 48 48v52a76 76 0 0 1 -76 76 76 76 0 0 1 -76-76v-52a48 48 0 0 1 48-48z" fill="#fdc8a2"/><path d="m432 128-17.642-5.881a44.4 44.4 0 0 1 -30.358-42.119v-40a48 48 0 0 1 48 48z" fill="#7d4a38"/><g fill="#844e3a"><path d="m384 40v40a190.267 190.267 0 0 1 -50.48 23.83 190.5 190.5 0 0 1 -55.21 8.17h-14.31v-24a64 64 0 0 1 64-64h30.11a28.939 28.939 0 0 1 25.89 16z"/><path d="m320 160a16 16 0 1 1 16-16 16.019 16.019 0 0 1 -16 16z"/><path d="m384 160a16 16 0 1 1 16-16 16.019 16.019 0 0 1 -16 16z"/></g><path d="m352 192.021a51.957 51.957 0 0 1 -28.363-8.408l8.726-13.411a36.026 36.026 0 0 0 39.274 0l8.726 13.411a51.957 51.957 0 0 1 -28.363 8.408z" fill="#fcb079"/><path d="m24 456h464v32h-464z" fill="#844e3a"/><rect fill="#d5d5d3" height="192" rx="24" width="272" x="24" y="200"/><path d="m160 392h32l-8-48h-24z" fill="#cececc"/><path d="m112 424h96v32h-96z" fill="#d5d5d3"/><path d="m160 456h-80l48-112h56z" fill="#dfdfdd"/><path d="m240 424h96v32h-96z" fill="#d5d5d3"/><path d="m432 336v64h-104a32 32 0 0 0 -32 32v16a8 8 0 0 0 8 8h128a56 56 0 0 0 56-56v-64z" fill="#fdc8a2"/><path d="m440 248h-32a7.981 7.981 0 0 1 -8-8v-4.484a84.269 84.269 0 0 0 37.693-52.028 32 32 0 0 0 2.307-62.475v-33.013a56.065 56.065 0 0 0 -51.315-55.789 36.7 36.7 0 0 0 -30.574-16.211h-30.111a72.081 72.081 0 0 0 -72 72v24a8 8 0 0 0 8 8h8v1.009a32 32 0 0 0 2.274 62.468q.312 1.317.666 2.623l15.439-4.2a68.174 68.174 0 0 1 -2.379-17.9v-44.242a197.684 197.684 0 0 0 89.72-26.443 52.317 52.317 0 0 0 34.108 36.393l12.172 4.058v30.234a68.006 68.006 0 0 1 -107.363 55.454l-9.274 13.038a84.192 84.192 0 0 0 12.637 7.413v.095a8.009 8.009 0 0 1 -8 8h-8v-24a32.036 32.036 0 0 0 -32-32h-224a32.036 32.036 0 0 0 -32 32v24h16v-24a16.019 16.019 0 0 1 16-16h224a16.019 16.019 0 0 1 16 16v144a16.019 16.019 0 0 1 -16 16h-88.39l8.212-38.324a8 8 0 0 0 -7.822-9.676h-56a8 8 0 0 0 -7.353 4.849l-18.493 43.151h-54.154a16.019 16.019 0 0 1 -16-16v-104h-16v104a32.036 32.036 0 0 0 32 32h47.3l-20.575 48h-50.725a8 8 0 0 0 -8 8v32a8 8 0 0 0 8 8h464a8 8 0 0 0 8-8v-32a8 8 0 0 0 -8-8h-13.736a63.85 63.85 0 0 0 21.736-48v-8h-16v8a48.055 48.055 0 0 1 -48 48h-128v-16a24.028 24.028 0 0 1 24-24h104a8 8 0 0 0 8-8v-56h40v32h16v-72a56.064 56.064 0 0 0 -56-56zm0-84v-25.835a15.978 15.978 0 0 1 3.32 25.142 16.2 16.2 0 0 1 -3.367 2.561c.013-.623.047-1.242.047-1.868zm-176-12a15.923 15.923 0 0 1 4.68-11.307 16.159 16.159 0 0 1 3.32-2.532v25.839c0 .619.017 1.236.031 1.854a16 16 0 0 1 -8.031-13.854zm112-76.34a181.933 181.933 0 0 1 -97.689 28.34h-6.311v-8.911c68.483-8.969 92.63-32.406 93.657-33.432l-11.263-11.364c-.058.056-5.877 5.589-19.922 11.985-11.815 5.381-31.772 12.374-61.711 16.562a55.568 55.568 0 0 1 4.69-14.92c29.93-.845 45.445-8.424 46.127-8.765l-7.112-14.332c-.114.056-9.07 4.292-26.61 6.229a55.784 55.784 0 0 1 38.144-15.052h30.111a20.816 20.816 0 0 1 17.889 10.048zm40.888 38.87a36.351 36.351 0 0 1 -24.888-34.53v-31.2a40.071 40.071 0 0 1 32 39.2v28.9zm-81.517 130.909a84.069 84.069 0 0 0 48.835-2.325 23.888 23.888 0 0 0 6.827 13.872 24.215 24.215 0 0 0 3.875 3.137l-2.28 3.039a42.031 42.031 0 0 1 -68.885-2.243 24.079 24.079 0 0 0 11.628-15.48zm-47.371 186.561v16h-40v-16zm-16.984-32h.984a31.94 31.94 0 0 0 8-1.013v17.013h-15.384zm-64 0h46.768l-6.4 16h-7.384a8 8 0 0 0 -8 8v24h-16v-24a8 8 0 0 0 -8-8h-7.384zm-26.835 0h9.6l-6.4 16h-6.631zm19.819 32v16h-30.1l3.428-16zm-66.725-80h40.825l-20.571 96h-61.4zm346.725 112v16h-448v-16zm0-136h-40v-24h-16v88h-96a39.964 39.964 0 0 0 -32 16.028v-18.9a31.86 31.86 0 0 0 8-21.128v-104h3.061a58.083 58.083 0 0 0 98.369 8.76l6.57-8.76h28a40.045 40.045 0 0 1 40 40zm-88.617-23.2 6.975 14.4a88 88 0 0 1 -82.358-2.99l8-13.856a72 72 0 0 0 67.384 2.446zm-55.383-160.8a16 16 0 1 1 -16-16 16.019 16.019 0 0 1 16 16zm32 0a16 16 0 1 1 16 16 16.019 16.019 0 0 1 -16-16zm3.637 26.2 8.726 13.411a52.043 52.043 0 0 1 -56.726 0l8.726-13.411a36.026 36.026 0 0 0 39.274 0zm-243.637 77.8h-32v-16h32zm48-16v16h-32v-16zm48 0v16h-32v-16zm48 16h-32v-16h32zm-192-16v16h-32v-16z"/></g></svg>